# xmcd
# 
# Track frame offsets:
#     150
#     20905
#     44065
#     68575
#     87150
#     107532
#     127377
#     151360
#     173520
#     199015
#     219265
#     240732
#     265977
#     283995
#     305272
#     322722
# 
# Disc length: 4610
# 
# Revision: 18
# Processed by: cddbd v1.5.2PL0 Copyright (c) Steve Scherf et al.
# Submitted via: fre:ac v1.0.27
# 
DISCID=e2120010
DTITLE=杏里 - Anri The Best
DYEAR=2000
DGENRE=J-Pop
TTITLE0=オリビアを聴きながら
TTITLE1=ドルフィン・リング
TTITLE2=嘘ならやさしく
TTITLE3=HAPPY ENDでふられたい
TTITLE4=LANI～HEAVENLY GARDEN～
TTITLE5=悲しみがとまらない
TTITLE6=最後のサーフホリデー
TTITLE7=愛してるなんてとても言えない
TTITLE8=SUMMER CANDLES
TTITLE9=ALL OF YOU
TTITLE10=逢えないせつなさと
TTITLE11=GROOVE A・GO・GO
TTITLE12=YOU ARE NOT ALONE
TTITLE13=SWEET EMOTION
TTITLE14=砂浜
TTITLE15=夏の月
EXTD=YEAR: 2000
EXTT0=
EXTT1=
EXTT2=
EXTT3=
EXTT4=
EXTT5=
EXTT6=
EXTT7=
EXTT8=
EXTT9=
EXTT10=
EXTT11=
EXTT12=
EXTT13=
EXTT14=
EXTT15=
PLAYORDER=
